<?xml version="1.0" encoding="utf-8"?>
<!-- Generator: Adobe Illustrator 27.0.0, SVG Export Plug-In . SVG Version: 6.00 Build 0)  -->
<svg version="1.1" id="Layer_1" xmlns="http://www.w3.org/2000/svg" xmlns:xlink="http://www.w3.org/1999/xlink" x="0px" y="0px"
	 viewBox="0 0 231 40" style="enable-background:new 0 0 231 40;" xml:space="preserve">
<style type="text/css">
	.st0{fill:#FFFFFF;}
</style>
<g>
	<g>
		<path class="st0" d="M143.4,6.5c0-1.1,0.9-1.9,1.9-1.9c1,0,1.9,0.8,1.9,1.9c0,1.1-0.9,1.9-1.9,1.9C144.2,8.3,143.4,7.5,143.4,6.5
			 M145.2,8c0.9,0,1.5-0.7,1.5-1.6c0-0.9-0.7-1.6-1.5-1.6c-0.9,0-1.5,0.7-1.5,1.6C143.7,7.4,144.4,8,145.2,8 M144.9,7.5h-0.3V5.4
			h0.8c0.5,0,0.8,0.2,0.8,0.6c0,0.4-0.2,0.5-0.6,0.6l0.6,0.9h-0.4l-0.6-0.9h-0.4L144.9,7.5L144.9,7.5z M145.2,6.3
			c0.3,0,0.5,0,0.5-0.3c0-0.3-0.2-0.3-0.5-0.3h-0.4v0.7H145.2z"/>
		<path class="st0" d="M21.6,3.3c0.7,2.9,1.4,5.8,1.9,8.7c0.1,0.6-0.1,1-0.5,1.4c-0.3,0.4-0.6,0.5-1.1,0.6c-0.6,0-1.1-0.2-1.5-0.6
			c-1.2-1.9-1.6-4.1-3.2-5.7c-0.4-0.3-0.9-0.5-1.4-0.3l-0.4,0.4l0.3,26.7c0.1,0.8,0.9,1.5,1.7,1.7c0.7-0.2,1.2-0.9,1.3-1.5l0.1-1.5
			l-0.1-13c-0.2-1-1.5-1-1.7-1.9c0.1-0.5,0.7-0.9,1.2-1.1c1.7-0.8,3.5-1.2,5.1-2.1c0.5,0,1.1-0.1,1.6,0.1l0.3,0.4l0.2,18.6
			c0.1,0.6,0.3,1.5,1.1,1.6c0.3,0.3,0.2,0.7,0.1,1.1c-0.4,0.6-1.1,0.6-1.7,0.7h-6.2c-0.5,0-0.9-0.3-1.2-0.6c-1.3,1-3.6,0.6-5.2,0.7
			c-1.8-0.2-4.1,0.5-5.7-0.6c-0.3-0.2-0.2-0.6-0.2-0.9c0.3-0.6,1.2-0.4,1.4-1.1l0.3-0.8L8,14L7.9,7.7C7.7,7.4,7.3,7.3,6.9,7.3
			C6.3,7.3,5.8,8.1,5.5,8.6c-0.8,1.4-1.3,3-2.1,4.5c-0.2,0.5-0.7,0.8-1.2,1c-0.7,0.2-1.4-0.1-1.9-0.6c-0.8-1-0.1-2.4,0-3.5l1.4-6.4
			C2,3.2,2.2,2.8,2.5,2.7C3.7,2.3,3.9,3.8,5,3.5l13.9-0.1c0.8-0.1,1.3-1.4,2.3-0.7L21.6,3.3z"/>
		<path class="st0" d="M106.7,3.7l0.3,0.4l0.1,4.4l0.2,25.6c0.1,0.7,0.4,1.4,1.2,1.8c0.2,0.3,0.2,0.7,0.2,1.1c-0.3,0.9-1.3,1-2.1,1
			l-5.8,0c-0.5-0.1-1-0.3-1.3-0.8c-0.2-0.4-0.2-0.8,0-1.2c0.6-0.4,1.2-0.8,1.3-1.6l0-11.9c-0.1-1,0-2.4-0.1-3.3
			c-0.4,1.1,0.1,2.6-1.1,3.2c-0.5,0.2-1,0-1.5-0.2c-0.5-0.5-0.8-1.2-0.9-1.9c-0.3-0.3-0.8-0.1-1.1,0.1c-4.5,3.2-2.6,9.4-2.9,14.3
			c-0.1,1,1.2,0.6,1.3,1.5c0,0.4-0.2,0.8-0.4,1.1c-0.4,0.4-1.1,0.4-1.6,0.5l-6.4-0.1c-0.4-0.1-0.8-0.4-0.9-0.8
			c-0.1-0.3-0.1-0.7,0.1-1c0.4-0.4,1.1-0.3,1.2-0.9l0-1.5L86.2,20c-0.1-1.1-1.8-1-1.6-2.3l0.8-0.7c1.8-0.8,3.8-1.4,5.6-2.2
			c0.7-0.1,1.4-0.1,1.8,0.5c0.2,1-0.1,2.1,0.2,3.2c0.1,0.1,0.2,0.1,0.3,0c1.1-1.7,2.6-3.8,4.8-3.6c0.9,0.1,1.8,0.1,2.3,0.9l0.1-0.3
			l-0.1-5l-0.1,0c0.1-0.5,0-1.1-0.1-1.6c0.1-1.1-1.7-1.2-1.2-2.4c1.6-1.9,4.3-1.7,6.2-3.2C105.8,3.3,106.3,3.4,106.7,3.7"/>
		<path class="st0" d="M61.2,3.5l0.2,0.5l0.1,11.4c0.5,0.8,1-0.5,1.5-0.5c1.7-0.6,3.6,0.1,4.8,1.4c2.3,2.5,2.7,5.6,3.2,8.9l0.1-0.1
			c0.4-3.7,1.1-7.6,4.5-9.6c1.8-1.1,4.3-1,6,0c2.1,1.9,3.8,4.1,3.7,7c0,0.8,0,1.5-0.3,2.2c-2.5,1.2-5.1,2-7.7,3.1
			c-0.6,0.5-0.1,1.2,0,1.7c0.4,1,0.9,2.5,2.3,2.7c0.7,0.2,1.8,0.7,2.4,0.1c0.8-0.7,0.2-2.8,1.9-2.3c0.7,0.1,1.3,0.5,1.7,1.2
			c0.4,2-0.4,3.8-1.4,5.4c-1.8,1.5-4.2,1.8-6.5,1.5c-4.4-0.9-6-5.6-6.6-9.4c-0.4,3.5-0.6,7.8-4.5,9.3c-2.4,0.7-5.1,0.2-6.7-1.5
			c-0.2-0.3-0.3-0.8-0.7-0.9c-1,0-1,1.1-1.5,1.7c-0.6,0.4-1.3,1-2.1,0.8c-0.3-0.2-0.5-0.5-0.7-0.7c-0.8,0.9-2,0.6-3.2,0.7l-4.5-0.1
			c-0.5-0.1-1-0.4-1.2-1c-0.1-0.5,0.5-0.8,0.8-1c0.4-0.7,0.7-1.5,0.6-2.4c-0.2-3.9-0.5-7.9-1.1-11.7c-0.2-0.8-0.5-1.7-1.1-2.2
			c-0.5-0.2-0.9,0.2-1.2,0.5l-0.4,0.6l0,13.8c0.2,0.7,0.5,1.4,1.2,1.6c0.2,0.2,0.2,0.6,0.1,0.9c-0.8,1.2-2.6,0.6-3.7,0.8
			c-1.5-0.2-3.8,0.6-4.8-0.8c-0.1-0.4,0-0.8,0.4-1c0.7-0.2,0.9-1,1.1-1.5l-0.1-14.4c-0.2-0.5-0.8-0.8-1.3-0.8
			c-0.6,0-1.1,0.6-1.4,1.1c-0.7,1.2-0.3,2.5-0.4,3.9L35,34.6c0,0.9,0.9,1.2,1.2,1.7c0.1,0.5-0.2,1-0.7,1.2c-2.5,0.5-4.6,0.1-7.1,0.2
			C28,37.6,27.3,37.6,27,37c-0.1-0.2-0.2-0.7,0.1-0.9c0.5-0.3,1.1-0.7,1.2-1.3l0.1-0.8l-0.1-13.9c-0.1-1.1-1.9-1-1.5-2.2
			c0.8-1,2.1-1.2,3.2-1.7c1-0.3,2-0.7,2.9-1.3c0.7,0,1.6-0.1,1.9,0.6c0,0.5-0.2,1.3,0.4,1.6c0.8-0.1,1-1.1,1.7-1.5
			c1.3-1.1,3.6-0.9,5.1-0.2c0.7,0.4,1,1.1,1.5,1.7c1,0,1.1-1.2,1.8-1.6c1.3-0.8,3.4-0.6,4.7,0.2c2.3,1.9,2.3,4.8,2.9,7.4
			c0.5,3.5,1,7,1,10.7c0.1,0.7,0.1,1.9,1,2.1l0.2,0.2l0.2-0.3L54.9,9.5c0-1-0.7-1.8-1.3-2.5c-0.1-0.3,0-0.7,0.2-0.9
			c1.5-1.4,3.5-1.5,5.2-2.4C59.4,3,60.7,2.9,61.2,3.5 M76.1,18.8c-0.4,2.1-0.3,4,0.1,6c0.2,0.3,0.2,0.8,0.7,0.7
			c0.8-0.5,1.8-0.6,2.4-1.5c1.3-2.1-0.2-4.4-1.2-6.2C77.2,17.4,76.3,18.1,76.1,18.8 M63.6,18.1c-0.4,0.1-0.7,0.5-0.9,0.9
			c-1.4,3-1.5,6.2-1.2,9.6c0.3,1.4,0.4,3,1.5,4c0.3,0.2,0.7-0.1,1-0.3c2.5-3.8,1.7-9.4,0.4-13.5C64.2,18.6,64.1,18,63.6,18.1"/>
		<path class="st0" d="M158.6,3.7l0.1,1.3l0.3,27.8c0,0.3,0.2,0.6,0.5,0.8c0.3,0.1,0.8,0.2,0.9,0.6c0.1,0.5,0,1-0.3,1.3
			c-1.6,0.9-3.3,1.4-5,2c-0.8,0.1-1.6,0.7-2.4,0.2c-0.4-0.4,0.3-1-0.4-1.2c-0.7,0.5-1.2,1.4-2.1,1.6c-1.9,0.4-3.7-0.4-5.1-1.7
			c-2.9-3.4-2.7-8.6-2.1-13c0.3-3,1.5-5.7,3.4-7.9c0.9-0.9,2.3-1.2,3.6-1c0.7,0.1,1.1,0.7,1.7,1.1c0.1,0,0.3-0.1,0.3-0.3l0-6.5
			c-0.2-1.2-2.9-1.5-1.5-3.1c0.5-0.3,1.3-0.1,1.9-0.4c1.7-0.9,3.6-1.5,5.3-2.4C158.2,3.1,158.5,3.3,158.6,3.7 M150.1,18.2
			c-0.5,0.1-0.7,0.7-0.9,1.1c-0.7,2.7-1.3,5.7-0.9,8.6c0.4,1.7,0.5,3.5,1.9,4.7c0.3,0.2,0.8,0.2,1-0.2c1.8-3.3,1.6-7.6,0.7-11.4
			C151.5,20,151.3,18.6,150.1,18.2"/>
		<path class="st0" d="M139.6,17.4c0.7,1.1,1.1,2.4,1.4,3.7c0.7,4.2,1.3,8.5,1.6,12.8c0,0.5,0.1,1.1,0.4,1.5
			c0.4,0.3,0.9,0.4,0.9,0.9c0,0.5-0.3,0.9-0.7,1.1c-2.1,0.4-4.6,0.2-6.9,0.2c-0.5-0.1-1-0.4-1.2-0.9c-0.1-0.4,0-0.8,0.4-1
			c0.9-0.4,0.8-1.4,1-2.1c0.1-4.3-0.9-8.6-2.1-12.6c-0.2-0.5-0.5-1-1-1.3c-0.4-0.1-0.8,0.1-0.9,0.4l-0.1,0.5l0.2,13.9
			c0,1,0.9,1.1,1.3,1.8c0.1,0.5-0.4,0.9-0.7,1.1c-2.1,0.4-4.8,0.2-6.9,0.2c-0.5-0.1-1-0.4-1.2-0.9c-0.2,0.2-0.5,0.5-0.8,0.8
			c-0.8,0.7-1.8,0.7-2.8,0.7c-1.1-0.2-1.9-1-2.8-1.8h-0.5c-1.7,1.6-4.1,2.5-6.3,1.5c-1.8-0.6-3.5-2.3-3.8-4.3
			c-0.5-2.6-0.3-5.6,1.9-7.3c1.7-1.9,4-2.6,6.2-3.3c0.5-1,0.4-2.3,0.1-3.3c-0.3-0.6-0.5-1.3-1.2-1.6l-2-0.2c-0.2,0-0.4,0.1-0.5,0.4
			c0.2,0.5,0.9,0.6,1.1,1.2c0.2,0.9,0.2,2.1-0.5,2.8c-1,0.7-2.7,1-3.8,0.1c-0.9-0.7-1.2-1.8-1.2-2.9c0-1.8,1.6-3.1,3.1-3.7
			c2.1-0.7,4.4-0.6,6.8-0.4c1.5,0.2,2.9,1.2,3.5,2.6c0.8,2.1,1,4.6,1.3,6.9c0.2,2.7,0.3,5.5,0.5,8.2c0.1,0.3,0.2,0.6,0.5,0.7
			c0.5-0.1,1.1,0,1.2,0.6c0.2,0.5,0.3,1,0.3,1.5c0.4-0.1,0.9-0.4,1.1-0.9l0.3-0.9l-0.2-14c-0.1-1.2-3-1.7-0.9-2.8
			c1.7-0.8,3.4-1.4,5.1-2.3c0.5-0.1,1.2-0.1,1.6,0.3c0.3,0.4,0.1,1,0.5,1.4c0.5-0.2,0.5-0.8,0.9-1.2c0.7-0.6,1.7-1.1,2.8-0.8
			C137.6,15.1,138.8,16.1,139.6,17.4 M115.2,26.1c-2.2,1.2-1.6,3.9-1.6,6c0.2,0.8,0.4,1.8,1.4,2.1c0.7,0.2,1.5,0,2-0.6
			c0.1-2.4-0.2-5.1-0.4-7.6C116.4,25.4,115.6,25.7,115.2,26.1"/>
		<g>
			<path class="st0" d="M190.1,19.8c0-1,0.1-2,0.2-2.9c-2.3-1.8-5.6-2.8-9.5-2.8c-2.8,0.4-5.2,1.7-7.4,3.5l1.5-9.3h16.4l2-4.1V1.7
				h-20.9l-2.6,18.6l1.5,1.3l1.8-0.8c2.3-1,3.6-1.3,5.4-1.3c3.5,0,5.6,2.5,5.6,6.7c0,2.3-0.6,4.3-1.8,5.4h-12.5v6.6h6.8l2.8,0
				c5.3-1.2,12.5-7.9,13.1-9.2C190.9,26.2,190.1,23.1,190.1,19.8z"/>
			<path class="st0" d="M211.8,7l1-0.2c0,0-1.5-3.3-2.1-5c0.5,0,1,0,1.5,0.1c0.8,1.3,2.1,3.8,2.1,3.8s2.3-1.3,3.5-1.9
				c0.4,0.1,0.7,0.3,1,0.6l-3.6,3.2l1.1,2.9c0,0,2.5-3.6,3.8-5.2c0.4,0.1,0.8,0.4,1.1,0.8c-0.5,0.9-1.3,1.8-1.7,2.7
				c1.5,0.1,3,0.1,4.5,0.2c0.4,0.4,0.8,0.9,1,1.5l-3.8,0.3l-1.8,3.1l2.4-0.5c0,0,1.9-0.8,3.9-1.6c0.4,0.5,0.6,1,0.7,1.6l-4.1,1.6
				l-3.6,0.8c-0.5,0.6-0.8,1.3-1.2,1.9c3.2-0.6,6.4-1.6,9.7-2.3c1.5,4.9,0.6,10.5-2,14.6c-8.8,2.2-18.2-0.6-27.4,0.6l-2.6,0.3
				c-1.9-2.3-2.8-5.1-3.3-8c-0.4-3.2-0.1-6.6,1.1-9.5c0.3,0,4.3-0.4,4.3-0.4l-2.5-3c0.1-0.5,0.5-0.9,0.9-1.3
				c1.3,1.4,3.7,4.1,3.7,4.1l1.4-0.1l-4.3-4.8c0.4-0.7,1.1-1.3,1.8-1.8l3.6,0.6c0,0,0-1.9,0-3c0.7-0.4,1.6-0.8,2.4-0.9
				c0.7,1.3,1.2,2.7,2,3.9c0.9-1.5,1.7-3.2,2.6-4.8c0.1-0.1,0.3-0.1,0.4,0L211.8,7z M209.2,5.3l-1.9,3.6l1.1,3.7l1.7-1.2l0.4-3.1
				C210.1,7.3,209.6,6.2,209.2,5.3 M203.6,5.5v1.8l0.9,0.2C204.3,6.8,203.9,6.2,203.6,5.5 M198.9,7.7v0.1c0.9,0.9,2.9,3.1,2.9,3.1
				V8.5L198.9,7.7z M213.4,8.5l-0.8,0.6l0.2,0.6l0.8-0.7L213.4,8.5z M203.7,9.3l0.1,3.4l1.3-2.9L203.7,9.3z M219.2,10.7l-1.2,0.1
				l-1.9,3l1.2,0L219.2,10.7z M211.8,12.9l0.1,3.5l2.6-3.3c0.2-0.2,0.3-0.7,0.3-0.7l-0.5-1.6L211.8,12.9z M206.2,12.5l-0.8,1.6
				l1.6,1.8C206.8,14.7,206.5,13.6,206.2,12.5 M209.9,13.9l-1,0.5l0.1,1.4l0.8,0.3L209.9,13.9z M199.5,14.1l-1.4,2.2l2.8,1.1
				l2.4-2.1l-0.9-1L199.5,14.1z M193.7,14.5l2.5,1.1l0.8-1.3L193.7,14.5z M214.9,16.1l-1.3,2.1l1.5-0.1l1.3-2.2L214.9,16.1z
				 M204.8,16.6l-4.5,3.7l-2.1,0.1c0,0,0.9-1,1.2-1.5c-0.8-0.4-1.6-0.7-2.4-1l-1.6,2.1c-0.5,0.1-1.1,0-1.5,0.2
				c-0.1,1.8,0.3,3.4,0.6,5c0.1,0.4,0.3,1.1,0.9,1.1c4.4,0,8.6,0.7,12.9,1.1v-6.7c-0.2-0.5-0.8-1.2-1.1-1.6l-2,1.2l-3.7,0
				c0-0.1,3-1.8,4.4-2.7C205.6,17.3,205.3,16.8,204.8,16.6 M194.1,16.7c-0.3,0.6-0.2,1.5-0.2,2.1c0.4-0.6,1.2-1.7,1.2-1.7
				L194.1,16.7z M225.6,17.6L224,18c0.4,0.8,1.4,2.5,1.4,2.5l-1.9,0.1l-1.7-2c-0.8,0.2-2.7,0.6-2.7,0.6l0.8,1.4l-1.4,0.2l-1.1-1.4
				c0,0-3.9,1.1-5.8,1.7l-0.1,0.2c0,2.1,0.2,4.3,0.4,6.3L212,28c3.6,0.7,7.3,0.9,11.1,1.1l0.4-0.1c1-1.5,1.6-3.2,2.2-4.9
				C226.3,22.1,226.5,19.4,225.6,17.6"/>
			<path class="st0" d="M224.5,30.9c-1.1,1.5-2.5,3-4.1,4.1c-8.3-0.1-16-2.4-24.1-2.8c-0.3-0.2-0.5-0.5-0.6-0.9
				c6.3-1.1,12.8-0.5,19.1-0.1c3.3,0.2,6.7-0.1,9.9-0.7L224.5,30.9z"/>
			<path class="st0" d="M212,34.8c2.4,0.3,4.9,0.5,7.3,0.8c-5,3.5-13.1,3.6-18.3,0.5c-1.4-0.9-2.9-1.8-4.1-3.2
				c0.1-0.2,0.4,0,0.5-0.1l3.4,0.3L212,34.8z"/>
		</g>
	</g>
</g>
</svg>
